<svg width="224" height="125" viewBox="0 0 224 125" fill="none" xmlns="http://www.w3.org/2000/svg">
<circle cx="91.2998" cy="34.5" r="34.5" fill="#19A051"/>
<circle cx="132.7" cy="34.5" r="34.5" fill="#2DD673"/>
<path d="M1.12 104.6C1.12 102.403 1.61067 100.44 2.592 98.712C3.59467 96.9627 4.94933 95.608 6.656 94.648C8.384 93.6667 10.3147 93.176 12.448 93.176C14.944 93.176 17.1307 93.816 19.008 95.096C20.8853 96.376 22.1973 98.1467 22.944 100.408H17.792C17.28 99.3414 16.5547 98.5414 15.616 98.008C14.6987 97.4747 13.632 97.208 12.416 97.208C11.1147 97.208 9.952 97.5174 8.928 98.136C7.92533 98.7334 7.136 99.5867 6.56 100.696C6.00533 101.805 5.728 103.107 5.728 104.6C5.728 106.072 6.00533 107.373 6.56 108.504C7.136 109.613 7.92533 110.477 8.928 111.096C9.952 111.693 11.1147 111.992 12.416 111.992C13.632 111.992 14.6987 111.725 15.616 111.192C16.5547 110.637 17.28 109.827 17.792 108.76H22.944C22.1973 111.043 20.8853 112.824 19.008 114.104C17.152 115.363 14.9653 115.992 12.448 115.992C10.3147 115.992 8.384 115.512 6.656 114.552C4.94933 113.571 3.59467 112.216 2.592 110.488C1.61067 108.76 1.12 106.797 1.12 104.6ZM25.6185 106.872C25.6185 105.08 25.9705 103.491 26.6745 102.104C27.3998 100.717 28.3705 99.6507 29.5865 98.904C30.8238 98.1574 32.1998 97.784 33.7145 97.784C35.0372 97.784 36.1892 98.0507 37.1705 98.584C38.1732 99.1174 38.9732 99.7894 39.5705 100.6V98.072H44.0825V115.8H39.5705V113.208C38.9945 114.04 38.1945 114.733 37.1705 115.288C36.1678 115.821 35.0052 116.088 33.6825 116.088C32.1892 116.088 30.8238 115.704 29.5865 114.936C28.3705 114.168 27.3998 113.091 26.6745 111.704C25.9705 110.296 25.6185 108.685 25.6185 106.872ZM39.5705 106.936C39.5705 105.848 39.3572 104.92 38.9305 104.152C38.5038 103.363 37.9278 102.765 37.2025 102.36C36.4772 101.933 35.6985 101.72 34.8665 101.72C34.0345 101.72 33.2665 101.923 32.5625 102.328C31.8585 102.733 31.2825 103.331 30.8345 104.12C30.4078 104.888 30.1945 105.805 30.1945 106.872C30.1945 107.939 30.4078 108.877 30.8345 109.688C31.2825 110.477 31.8585 111.085 32.5625 111.512C33.2878 111.939 34.0558 112.152 34.8665 112.152C35.6985 112.152 36.4772 111.949 37.2025 111.544C37.9278 111.117 38.5038 110.52 38.9305 109.752C39.3572 108.963 39.5705 108.024 39.5705 106.936ZM70.474 97.816C72.65 97.816 74.3993 98.488 75.722 99.832C77.066 101.155 77.738 103.011 77.738 105.4V115.8H73.258V106.008C73.258 104.621 72.906 103.565 72.202 102.84C71.498 102.093 70.538 101.72 69.322 101.72C68.106 101.72 67.1353 102.093 66.41 102.84C65.706 103.565 65.354 104.621 65.354 106.008V115.8H60.874V106.008C60.874 104.621 60.522 103.565 59.818 102.84C59.114 102.093 58.154 101.72 56.938 101.72C55.7007 101.72 54.7193 102.093 53.994 102.84C53.29 103.565 52.938 104.621 52.938 106.008V115.8H48.458V98.072H52.938V100.216C53.514 99.4694 54.25 98.8827 55.146 98.456C56.0633 98.0294 57.066 97.816 58.154 97.816C59.5407 97.816 60.778 98.1147 61.866 98.712C62.954 99.288 63.7967 100.12 64.394 101.208C64.97 100.184 65.802 99.3627 66.89 98.744C67.9993 98.1254 69.194 97.816 70.474 97.816ZM86.4693 100.632C87.0453 99.8214 87.8346 99.1494 88.8373 98.616C89.8613 98.0614 91.0239 97.784 92.3253 97.784C93.8399 97.784 95.2053 98.1574 96.4213 98.904C97.6586 99.6507 98.6293 100.717 99.3333 102.104C100.059 103.469 100.421 105.059 100.421 106.872C100.421 108.685 100.059 110.296 99.3333 111.704C98.6293 113.091 97.6586 114.168 96.4213 114.936C95.2053 115.704 93.8399 116.088 92.3253 116.088C91.0239 116.088 89.8719 115.821 88.8693 115.288C87.8879 114.755 87.0879 114.083 86.4693 113.272V124.248H81.9893V98.072H86.4693V100.632ZM95.8453 106.872C95.8453 105.805 95.6213 104.888 95.1733 104.12C94.7466 103.331 94.1706 102.733 93.4453 102.328C92.7413 101.923 91.9733 101.72 91.1413 101.72C90.3306 101.72 89.5626 101.933 88.8373 102.36C88.1333 102.765 87.5573 103.363 87.1093 104.152C86.6826 104.941 86.4693 105.869 86.4693 106.936C86.4693 108.003 86.6826 108.931 87.1093 109.72C87.5573 110.509 88.1333 111.117 88.8373 111.544C89.5626 111.949 90.3306 112.152 91.1413 112.152C91.9733 112.152 92.7413 111.939 93.4453 111.512C94.1706 111.085 94.7466 110.477 95.1733 109.688C95.6213 108.899 95.8453 107.96 95.8453 106.872ZM120.413 98.072V115.8H115.901V113.56C115.325 114.328 114.567 114.936 113.629 115.384C112.711 115.811 111.709 116.024 110.621 116.024C109.234 116.024 108.007 115.736 106.941 115.16C105.874 114.563 105.031 113.699 104.413 112.568C103.815 111.416 103.517 110.051 103.517 108.472V98.072H107.997V107.832C107.997 109.24 108.349 110.328 109.053 111.096C109.757 111.843 110.717 112.216 111.933 112.216C113.17 112.216 114.141 111.843 114.845 111.096C115.549 110.328 115.901 109.24 115.901 107.832V98.072H120.413ZM131.617 116.088C130.166 116.088 128.865 115.832 127.713 115.32C126.561 114.787 125.644 114.072 124.961 113.176C124.3 112.28 123.937 111.288 123.873 110.2H128.385C128.47 110.883 128.801 111.448 129.377 111.896C129.974 112.344 130.71 112.568 131.585 112.568C132.438 112.568 133.1 112.397 133.569 112.056C134.06 111.715 134.305 111.277 134.305 110.744C134.305 110.168 134.006 109.741 133.409 109.464C132.833 109.165 131.905 108.845 130.625 108.504C129.302 108.184 128.214 107.853 127.361 107.512C126.529 107.171 125.804 106.648 125.185 105.944C124.588 105.24 124.289 104.291 124.289 103.096C124.289 102.115 124.566 101.219 125.121 100.408C125.697 99.5974 126.508 98.9574 127.553 98.488C128.62 98.0187 129.868 97.784 131.297 97.784C133.409 97.784 135.094 98.3174 136.353 99.384C137.612 100.429 138.305 101.848 138.433 103.64H134.145C134.081 102.936 133.782 102.381 133.249 101.976C132.737 101.549 132.044 101.336 131.169 101.336C130.358 101.336 129.729 101.485 129.281 101.784C128.854 102.083 128.641 102.499 128.641 103.032C128.641 103.629 128.94 104.088 129.537 104.408C130.134 104.707 131.062 105.016 132.321 105.336C133.601 105.656 134.657 105.987 135.489 106.328C136.321 106.669 137.036 107.203 137.633 107.928C138.252 108.632 138.572 109.571 138.593 110.744C138.593 111.768 138.305 112.685 137.729 113.496C137.174 114.307 136.364 114.947 135.297 115.416C134.252 115.864 133.025 116.088 131.617 116.088Z" fill="black"/>
<path d="M154.879 115.8L146.751 105.848V115.8H142.271V93.464H146.751V103.48L154.879 93.464H160.287L151.071 104.536L160.543 115.8H154.879ZM171.361 116.088C169.655 116.088 168.119 115.715 166.753 114.968C165.388 114.2 164.311 113.123 163.521 111.736C162.753 110.349 162.369 108.749 162.369 106.936C162.369 105.123 162.764 103.523 163.553 102.136C164.364 100.749 165.463 99.6827 166.849 98.936C168.236 98.168 169.783 97.784 171.489 97.784C173.196 97.784 174.743 98.168 176.129 98.936C177.516 99.6827 178.604 100.749 179.393 102.136C180.204 103.523 180.609 105.123 180.609 106.936C180.609 108.749 180.193 110.349 179.361 111.736C178.551 113.123 177.441 114.2 176.033 114.968C174.647 115.715 173.089 116.088 171.361 116.088ZM171.361 112.184C172.172 112.184 172.929 111.992 173.633 111.608C174.359 111.203 174.935 110.605 175.361 109.816C175.788 109.027 176.001 108.067 176.001 106.936C176.001 105.251 175.553 103.96 174.657 103.064C173.783 102.147 172.705 101.688 171.425 101.688C170.145 101.688 169.068 102.147 168.193 103.064C167.34 103.96 166.913 105.251 166.913 106.936C166.913 108.621 167.329 109.923 168.161 110.84C169.015 111.736 170.081 112.184 171.361 112.184ZM188.376 100.664C188.952 99.8107 189.741 99.1174 190.744 98.584C191.768 98.0507 192.93 97.784 194.232 97.784C195.746 97.784 197.112 98.1574 198.328 98.904C199.565 99.6507 200.536 100.717 201.24 102.104C201.965 103.469 202.328 105.059 202.328 106.872C202.328 108.685 201.965 110.296 201.24 111.704C200.536 113.091 199.565 114.168 198.328 114.936C197.112 115.704 195.746 116.088 194.232 116.088C192.909 116.088 191.746 115.832 190.744 115.32C189.762 114.787 188.973 114.104 188.376 113.272V115.8H183.896V92.12H188.376V100.664ZM197.752 106.872C197.752 105.805 197.528 104.888 197.08 104.12C196.653 103.331 196.077 102.733 195.352 102.328C194.648 101.923 193.88 101.72 193.048 101.72C192.237 101.72 191.469 101.933 190.744 102.36C190.04 102.765 189.464 103.363 189.016 104.152C188.589 104.941 188.376 105.869 188.376 106.936C188.376 108.003 188.589 108.931 189.016 109.72C189.464 110.509 190.04 111.117 190.744 111.544C191.469 111.949 192.237 112.152 193.048 112.152C193.88 112.152 194.648 111.939 195.352 111.512C196.077 111.085 196.653 110.477 197.08 109.688C197.528 108.899 197.752 107.96 197.752 106.872ZM213.455 116.088C211.748 116.088 210.212 115.715 208.847 114.968C207.482 114.2 206.404 113.123 205.615 111.736C204.847 110.349 204.463 108.749 204.463 106.936C204.463 105.123 204.858 103.523 205.647 102.136C206.458 100.749 207.556 99.6827 208.943 98.936C210.33 98.168 211.876 97.784 213.583 97.784C215.29 97.784 216.836 98.168 218.223 98.936C219.61 99.6827 220.698 100.749 221.487 102.136C222.298 103.523 222.703 105.123 222.703 106.936C222.703 108.749 222.287 110.349 221.455 111.736C220.644 113.123 219.535 114.2 218.127 114.968C216.74 115.715 215.183 116.088 213.455 116.088ZM213.455 112.184C214.266 112.184 215.023 111.992 215.727 111.608C216.452 111.203 217.028 110.605 217.455 109.816C217.882 109.027 218.095 108.067 218.095 106.936C218.095 105.251 217.647 103.96 216.751 103.064C215.876 102.147 214.799 101.688 213.519 101.688C212.239 101.688 211.162 102.147 210.287 103.064C209.434 103.96 209.007 105.251 209.007 106.936C209.007 108.621 209.423 109.923 210.255 110.84C211.108 111.736 212.175 112.184 213.455 112.184Z" fill="#2BAE60"/>
</svg>
